<mxfile host="app.diagrams.net" modified="2021-10-21T08:54:41.069Z" agent="5.0 (Macintosh; Intel Mac OS X 10_15_7) AppleWebKit/537.36 (KHTML, like Gecko) Chrome/86.0.4240.193 Safari/537.36" etag="PpqciMYfe-ugsIfqpaao" version="15.5.6" type="github">
  <diagram id="VkdcK41FghBueO7Cx07d" name="Page-1">
    <mxGraphModel dx="1426" dy="771" grid="1" gridSize="10" guides="1" tooltips="1" connect="1" arrows="1" fold="1" page="1" pageScale="1" pageWidth="827" pageHeight="1169" math="0" shadow="0">
      <root>
        <mxCell id="0" />
        <mxCell id="1" parent="0" />
        <mxCell id="jjM4nss9zuX10dcARBzG-11" style="edgeStyle=orthogonalEdgeStyle;rounded=0;orthogonalLoop=1;jettySize=auto;html=1;exitX=1;exitY=0.5;exitDx=0;exitDy=0;entryX=0;entryY=0.5;entryDx=0;entryDy=0;" edge="1" parent="1" source="jjM4nss9zuX10dcARBzG-1" target="jjM4nss9zuX10dcARBzG-2">
          <mxGeometry relative="1" as="geometry" />
        </mxCell>
        <mxCell id="jjM4nss9zuX10dcARBzG-1" value="过户保证金解冻" style="rounded=0;whiteSpace=wrap;html=1;" vertex="1" parent="1">
          <mxGeometry x="80" y="190" width="120" height="60" as="geometry" />
        </mxCell>
        <mxCell id="jjM4nss9zuX10dcARBzG-12" style="edgeStyle=orthogonalEdgeStyle;rounded=0;orthogonalLoop=1;jettySize=auto;html=1;entryX=0.5;entryY=0;entryDx=0;entryDy=0;" edge="1" parent="1" source="jjM4nss9zuX10dcARBzG-2" target="jjM4nss9zuX10dcARBzG-3">
          <mxGeometry relative="1" as="geometry" />
        </mxCell>
        <mxCell id="jjM4nss9zuX10dcARBzG-2" value="查询冻结记录" style="rounded=0;whiteSpace=wrap;html=1;" vertex="1" parent="1">
          <mxGeometry x="300" y="190" width="120" height="60" as="geometry" />
        </mxCell>
        <mxCell id="jjM4nss9zuX10dcARBzG-13" style="edgeStyle=orthogonalEdgeStyle;rounded=0;orthogonalLoop=1;jettySize=auto;html=1;exitX=0.5;exitY=1;exitDx=0;exitDy=0;entryX=0.5;entryY=0;entryDx=0;entryDy=0;" edge="1" parent="1" source="jjM4nss9zuX10dcARBzG-3" target="jjM4nss9zuX10dcARBzG-4">
          <mxGeometry relative="1" as="geometry" />
        </mxCell>
        <mxCell id="jjM4nss9zuX10dcARBzG-19" style="edgeStyle=orthogonalEdgeStyle;rounded=0;orthogonalLoop=1;jettySize=auto;html=1;exitX=1;exitY=0.5;exitDx=0;exitDy=0;entryX=0;entryY=0.5;entryDx=0;entryDy=0;" edge="1" parent="1" source="jjM4nss9zuX10dcARBzG-3" target="jjM4nss9zuX10dcARBzG-16">
          <mxGeometry relative="1" as="geometry" />
        </mxCell>
        <mxCell id="jjM4nss9zuX10dcARBzG-3" value="冻结记录是否存在" style="rounded=0;whiteSpace=wrap;html=1;" vertex="1" parent="1">
          <mxGeometry x="300" y="290" width="120" height="60" as="geometry" />
        </mxCell>
        <mxCell id="jjM4nss9zuX10dcARBzG-14" style="edgeStyle=orthogonalEdgeStyle;rounded=0;orthogonalLoop=1;jettySize=auto;html=1;entryX=0.5;entryY=0;entryDx=0;entryDy=0;" edge="1" parent="1" source="jjM4nss9zuX10dcARBzG-4" target="jjM4nss9zuX10dcARBzG-6">
          <mxGeometry relative="1" as="geometry" />
        </mxCell>
        <mxCell id="jjM4nss9zuX10dcARBzG-18" style="edgeStyle=orthogonalEdgeStyle;rounded=0;orthogonalLoop=1;jettySize=auto;html=1;exitX=1;exitY=0.5;exitDx=0;exitDy=0;entryX=0;entryY=0.5;entryDx=0;entryDy=0;" edge="1" parent="1" source="jjM4nss9zuX10dcARBzG-4" target="jjM4nss9zuX10dcARBzG-17">
          <mxGeometry relative="1" as="geometry" />
        </mxCell>
        <mxCell id="jjM4nss9zuX10dcARBzG-4" value="冻结记录是否&lt;br&gt;已经解冻" style="rounded=0;whiteSpace=wrap;html=1;" vertex="1" parent="1">
          <mxGeometry x="300" y="390" width="120" height="60" as="geometry" />
        </mxCell>
        <mxCell id="jjM4nss9zuX10dcARBzG-9" style="edgeStyle=orthogonalEdgeStyle;rounded=0;orthogonalLoop=1;jettySize=auto;html=1;exitX=1;exitY=0.5;exitDx=0;exitDy=0;" edge="1" parent="1" source="jjM4nss9zuX10dcARBzG-6" target="jjM4nss9zuX10dcARBzG-8">
          <mxGeometry relative="1" as="geometry" />
        </mxCell>
        <mxCell id="jjM4nss9zuX10dcARBzG-15" style="edgeStyle=orthogonalEdgeStyle;rounded=0;orthogonalLoop=1;jettySize=auto;html=1;entryX=0.5;entryY=0;entryDx=0;entryDy=0;" edge="1" parent="1" source="jjM4nss9zuX10dcARBzG-6" target="jjM4nss9zuX10dcARBzG-7">
          <mxGeometry relative="1" as="geometry" />
        </mxCell>
        <mxCell id="jjM4nss9zuX10dcARBzG-6" value="是否是单车冻结" style="rounded=0;whiteSpace=wrap;html=1;" vertex="1" parent="1">
          <mxGeometry x="300" y="490" width="120" height="60" as="geometry" />
        </mxCell>
        <mxCell id="jjM4nss9zuX10dcARBzG-7" value="是否是单车冻结" style="rounded=0;whiteSpace=wrap;html=1;" vertex="1" parent="1">
          <mxGeometry x="300" y="600" width="120" height="60" as="geometry" />
        </mxCell>
        <mxCell id="jjM4nss9zuX10dcARBzG-8" value="" style="rounded=0;whiteSpace=wrap;html=1;" vertex="1" parent="1">
          <mxGeometry x="570" y="490" width="120" height="60" as="geometry" />
        </mxCell>
        <mxCell id="jjM4nss9zuX10dcARBzG-10" value="否，即为店铺冻结" style="text;html=1;align=center;verticalAlign=middle;resizable=0;points=[];autosize=1;strokeColor=none;fillColor=none;" vertex="1" parent="1">
          <mxGeometry x="440" y="490" width="110" height="20" as="geometry" />
        </mxCell>
        <mxCell id="jjM4nss9zuX10dcARBzG-16" value="没有冻结记录" style="rounded=0;whiteSpace=wrap;html=1;fillColor=#f8cecc;strokeColor=#b85450;" vertex="1" parent="1">
          <mxGeometry x="480" y="290" width="120" height="60" as="geometry" />
        </mxCell>
        <mxCell id="jjM4nss9zuX10dcARBzG-17" value="冻结记录已经解冻" style="rounded=0;whiteSpace=wrap;html=1;fillColor=#f8cecc;strokeColor=#b85450;" vertex="1" parent="1">
          <mxGeometry x="480" y="390" width="120" height="60" as="geometry" />
        </mxCell>
        <mxCell id="jjM4nss9zuX10dcARBzG-20" value="是" style="text;html=1;align=center;verticalAlign=middle;resizable=0;points=[];autosize=1;strokeColor=none;fillColor=none;" vertex="1" parent="1">
          <mxGeometry x="435" y="300" width="30" height="20" as="geometry" />
        </mxCell>
        <mxCell id="jjM4nss9zuX10dcARBzG-21" value="是" style="text;html=1;align=center;verticalAlign=middle;resizable=0;points=[];autosize=1;strokeColor=none;fillColor=none;" vertex="1" parent="1">
          <mxGeometry x="435" y="390" width="30" height="20" as="geometry" />
        </mxCell>
      </root>
    </mxGraphModel>
  </diagram>
</mxfile>
